<?xml version="1.0" encoding="UTF-8" standalone="no"?>
<svg
   version="1.1"
   id="Ebene_1"
   x="0px"
   y="0px"
   viewBox="-566.7274 -103 213.75803 200.5185"
   enable-background="new -566.7274 -103 1664.797 507.0414"
   xml:space="preserve"
   width="213.75803"
   height="200.51851"
   xmlns="http://www.w3.org/2000/svg"
   xmlns:svg="http://www.w3.org/2000/svg"><defs
   id="defs279" />

<path
   style="fill:#000000;stroke-width:0.937253"
   d="m -532.67967,94.183746 c 3.4064,-8.15269 10.0963,-15.28935 25.8556,-27.58248 25.9956,-20.27799 33.5675,-31.75361 35.1973,-53.34321 0.3541,-4.6901698 0.4778,-8.5257998 0.275,-8.5236298 -0.2028,0.002 -2.4437,1.05656 -4.9796,2.34313 -5.3822,2.73056 -10.3868,2.9785498 -15.0673,0.7466 l -3.3397,-1.5926 -4.1479,4.7416398 c -2.2813,2.60791 -7.9061,7.31572 -12.4995,10.46179 -6.2224,4.26186 -9.7449,7.53924 -13.8169,12.85564 -7.5187,9.81632 -13.0403,12.20374 -18.4262,7.96719 -1.6913,-1.33042 -3.213,-1.69784 -5.5156,-1.33182 -2.6572,0.42242 -4.0507,-0.12071 -8.4793,-3.30491 -7.1443,-5.13684 -9.6502,-10.20802 -9.0065,-18.22635 0.5312,-6.61814 1.7647,-9.29987 14.0452,-30.53434 13.8257,-23.90619 16.9615,-30.67116 16.3353,-35.23976 -0.8599,-6.27366 3.2303,-13.59144 13.7287,-24.56229 l 8.8536,-9.25212 1.5819,-9.32107 c 2.4313,-14.325516 2.2173,-13.696696 4.5482,-13.365236 1.3412,0.19071 4.1727,3.114376 8.0016,8.261806 3.2592,4.38165 6.6948,8.09565 7.6345,8.25333 1.1568,0.19408 3.9117,-2.22802 8.5284,-7.49802 3.7509,-4.28159 7.4244,-8.146896 8.1634,-8.589566 2.3149,-1.38672 3.9803,1.51342 6.4395,11.213596 1.293,5.10046 2.9599,9.94967 3.7041,10.77602 0.7443,0.82635 3.3702,2.60028 5.8356,3.94208 l 4.4824,2.43962 5.8902,-1.83326 c 3.2397,-1.00829 6.4636,-1.83326 7.1643,-1.83326 0.7006,0 5.2572,3.18548 10.1256,7.07884 6.5578,5.24447 8.7369,7.51754 8.4089,8.77179 -0.3333,1.27437 0.2362,1.82873 2.303,2.24211 4.029,0.80578 16.4492,14.28328 15.8846,17.23672 -0.3404,1.78059 0.099,2.30702 2.4278,2.91053 3.8181,0.9894 14.8682,16.05146 14.49,19.75104 -0.1936,1.89424 0.2069,2.52718 1.7372,2.74553 1.4268,0.20359 3.4036,2.83783 6.9959,9.3222502 5.0001,9.02588 5.3492,10.19815 4.1501,13.93852 -0.514,1.60346 -0.1703,2.1049 1.7779,2.59386 2.6469,0.66434 3.4971,2.2987298 8.2332,15.8257998 2.6783,7.64997 2.7723,8.34102 1.3479,9.91495 -2.1501,2.37582 -1.9075,3.75722 0.7784,4.43133 2.7086,0.67982 2.6374,0.49053 5.5086,14.64804 l 2.2255,10.97433 -2.2642,2.12715 -2.2642,2.12713 2.7843,2.36319 c 2.7401,2.32574 2.7944,2.5525 3.4289,14.31316 l 0.6446,11.94997 h -90.5518 -90.5519 z m 161.5397,-11.14675 c -0.3269,-10.86927 -0.379,-10.78262 6.5005,-10.81152 3.1712,-0.0133 3.5823,-0.52651 2.1869,-2.7303 -0.6099,-0.96337 -1.9607,-1.15672 -5.0869,-0.72823 l -4.2564,0.58341 -0.629,-4.42666 c -0.3459,-2.43467 -1.3955,-8.22254 -2.3325,-12.86194 -0.937,-4.6394 -1.4162,-8.71858 -1.0649,-9.06485 0.3513,-0.34626 2.1149,-1.00383 3.9191,-1.46127 2.3311,-0.59102 3.3671,-1.42595 3.5799,-2.88513 0.1647,-1.12938 0.1647,-2.04886 0,-2.04328 -0.1647,0.006 -2.265,0.60665 -4.6672,1.3357 l -4.3677,1.32555 -4.3019,-12.61417 c -2.3661,-6.9378 -4.3019,-12.77819 -4.3019,-12.97867 0,-0.20047 1.5816,-0.86992 3.5147,-1.48766 4.3902,-1.40294 5.0468,-1.98778 4.0472,-3.6051498 -0.6699,-1.08394 -1.4612,-1.06002 -5.0173,0.15165 l -4.2219,1.4385498 -5.2562,-10.45359977 c -2.8909,-5.74948003 -5.255,-10.70241023 -5.2535,-11.00652023 0,-0.30411 1.6898,-1.1097 3.7517,-1.79021 3.6781,-1.21387 4.9411,-3.35042 2.5279,-4.27643 -0.6716,-0.25772 -2.7669,0.17728 -4.6561,0.96667 -1.8893,0.78939 -3.6448,1.43526 -3.9011,1.43526 -0.2562,0 -2.859,-3.59632 -5.7838,-7.99183 -2.9248,-4.3955 -5.681,-8.21626 -6.1249,-8.49058 -1.6336,-1.00959 -0.7239,-2.39304 2.4439,-3.7166 2.2368,-0.93462 3.0826,-1.79674 2.7114,-2.76393 -0.6809,-1.77455 -2.5127,-1.78362 -5.9053,-0.0292 l -2.6616,1.37639 -7.0427,-8.14285 -7.0427,-8.14285 2.9558,-1.77696 c 3.9296,-2.3624 3.8576,-2.25253 2.5273,-3.85539 -1.023,-1.23267 -1.5929,-1.15602 -4.6998,0.63207 l -3.5356,2.03484 -6.9151,-6.26786 c -3.8033,-3.44732 -7.4174,-6.27253 -8.0313,-6.27823 -3.3005,-0.0307 -1.4609,2.84187 6.7627,10.56005 23.6351,22.1823 41.5596,48.9139502 53.5586,79.87444 6.9476,17.92662 12.4947,45.33408 12.4947,61.73469 0,7.98338 0.2962,9.02788 2.5597,9.02788 1.057,0 1.2531,-1.8914 1.0153,-9.79524 z m -177.6127,-70.41065 -0.5755,-6.1629398 8.0291,-7.66154 c 8.0691,-7.69968 10.6336,-11.1348602 9.5824,-12.8357902 -0.9603,-1.55368 -3.1106,-1.01733 -3.7286,0.93001 -0.3226,1.01635 -3.9064,4.8455502 -7.964,8.5093502 -7.1562,6.46169 -9.3837,9.93209 -9.3837,14.6198098 0,1.85796 -0.4773,2.20552 -3.046,2.21762 -3.667,0.0172 -5.7689,1.1897 -5.1989,2.89987 0.2725,0.81752 1.7041,1.18374 4.0976,1.04822 2.0233,-0.11455 4.7331,0.40826 6.0219,1.16181 1.2887,0.75355 2.4327,1.38505 2.5421,1.4033 0.1095,0.0183 -0.06,-2.7401 -0.3764,-6.12972 z m 97.183,-6.8599598 c 1.2888,-0.35848 2.3432,-1.25563 2.3432,-1.99368 0,-1.04296 -1.6183,-1.35735 -7.2646,-1.41131 -3.9955,-0.0382 -7.6846,-0.48949 -8.198,-1.00292 -0.6199,-0.61983997 0.6125,-2.11254997 3.6677,-4.44245 5.2026,-3.96757 8.9117,-8.4719702 10.9056,-13.2439802 1.7724,-4.24204 1.7127,-5.18462 -0.3283,-5.18462 -1.094,0 -2.1271,1.21914 -2.9414,3.47116 -1.1661,3.22462 -10.8999,14.1175902 -11.8058,13.2116602 -0.2228,-0.22278 0.023,-1.85329 0.5454,-3.62336 1.3823,-4.6802302 2.6709,-15.5655102 2.1008,-17.7457502 -0.8773,-3.35481 -3.0819,-2.18822 -3.0996,1.64022 -0.024,5.28154 -2.323,15.1015502 -5.0531,21.5877702 -2.785,6.61686 -2.8456,6.93489 -1.2571,6.59728 0.6443,-0.13695 3.0695,0.2526 5.3892,0.86568 8.1905,2.16471 10.9515,2.39933 14.996,1.2743 z m -50.0467,-47.0389702 c 3.7214,-3.47655 5.3279,-7.2524 4.7905,-11.25904 -0.3352,-2.49947 -0.091,-3.68059 0.8343,-4.03569 0.7196,-0.27612 1.3083,-1.35879 1.3083,-2.40595 0,-2.368 -3.1849,-2.52708 -10.0108,-0.50001 -6.0692,1.80236 -9.4722,4.52074 -11.6432,9.30083 -2.2438,4.94044 -2.2081,6.30255 0.2468,9.42345 1.8524,2.35501 2.449,2.53794 7.0366,2.15751 3.6206,-0.30026 5.6859,-1.04474 7.4375,-2.6811 z"
   id="path1344" /></svg>
