<?xml version="1.0" encoding="UTF-8" standalone="no"?>
<svg
   version="1.1"
   id="Ebene_1"
   x="0px"
   y="0px"
   viewBox="-566.7274 -103 200.65141 193.88519"
   enable-background="new -566.7274 -103 1664.797 507.0414"
   xml:space="preserve"
   width="200.65141"
   height="193.88519"
   xmlns="http://www.w3.org/2000/svg"
   xmlns:svg="http://www.w3.org/2000/svg"><defs
   id="defs279" />
<g
   id="g1232"
   transform="translate(-725.29185,-276.3243)"><g
     id="g1206"
     transform="translate(-10.309778,-1.8745052)"><g
       id="g1191"
       transform="translate(-1.8745052,-17.807799)"><path
         stroke="#000000"
         stroke-width="0.975"
         d="m 289.5465,255.2547 c 4.2551,-2.5163 6.0524,-5.8819 6.0524,-9.5858 0,-1.0845 0.1536,-52.1748 0.1536,-52.1748 h -50.6521 c 0,0 -0.2381,51.5298 -0.2381,52.1748 0,3.7313 2.6438,7.1202 6.9572,9.6424 -3.0508,0.444 -6.0679,0.9877 -9.0513,1.6422 4.7714,3.0493 9.2784,6.6103 13.4477,10.6719 5.9081,5.747 10.7962,12.1112 14.6337,18.9734 3.8373,-6.8622 8.7285,-13.2265 14.6306,-18.9734 4.1783,-4.0616 8.6885,-7.6287 13.4599,-10.6778 -3.0517,-0.6607 -6.1978,-1.1955 -9.3439,-1.6674 z"
         id="path2" /><path
         d="m 336.1401,371.3768 c -3.1338,-6.2831 -3.2197,-14.4984 -1.828,-20.0472 1.4256,-5.7083 14.9471,-16.5107 14.9471,-16.5107 23.82,-23.1688 29.2734,-56.1955 12.1848,-73.7632 -17.0946,-17.5662 -50.2525,-13.0144 -74.0716,10.1572 -7.1124,6.922 -12.5689,14.7212 -16.299,22.7277 -3.7269,-8.0065 -9.1894,-15.8056 -16.2989,-22.7277 -23.8152,-23.1716 -56.9788,-27.7233 -74.0716,-10.1572 -17.087,17.5662 -11.6304,50.5954 12.1836,73.7632 1.0753,1.0446 12.9456,10.8024 14.3726,16.5107 1.424,5.7023 1.6222,13.8994 -1.8035,20.2589 h 0.5146 c -0.0753,0.043 -0.149,0.0707 -0.2258,0.1137 19.709,9.7208 41.8902,15.1896 65.3474,15.1896 23.4384,-0.0315 45.3037,-5.8203 65.0297,-15.5417"
         id="path4" /><g
         id="g10">
		<path
   stroke="#ffffff"
   stroke-width="3.1741"
   stroke-linecap="round"
   d="m 209.1954,370.2128 c 18.9687,-8.8515 39.9428,-13.7641 62.2548,-13.7641 21.4327,0 42.0035,5.2628 60.3546,12.7379"
   id="path6" />
		<path
   stroke="#ffffff"
   stroke-width="3.1741"
   stroke-linecap="round"
   d="m 340.9221,333.4665 c -19.7552,-6.704 -43.9635,-10.6549 -70.1201,-10.6549 -26.3853,0 -50.7842,4.0248 -70.636,10.8361"
   id="path8" />
	</g><polygon
         fill="none"
         stroke="#ffffff"
         stroke-width="1.9503"
         stroke-linejoin="bevel"
         points="249.1192,197.1778 291.623,197.1778 249.1192,235.277 291.623,235.277 "
         id="polygon12" /><path
         fill="none"
         stroke="#ffffff"
         stroke-width="3.1741"
         stroke-linecap="round"
         d="m 328.558,356.7161 c -18.1913,-6.3875 -37.5454,-11.0204 -57.6207,-11.0204 -20.4619,0 -40.1724,4.7622 -58.6589,11.3737"
         id="path14" /><polygon
         fill="#ffffff"
         stroke="#000000"
         stroke-width="0.9974"
         points="270.9531,330.2889 260.98,335.2912 270.9531,340.262 280.9262,335.2912 "
         id="polygon16" /><polygon
         fill="#ffffff"
         stroke="#000000"
         stroke-width="0.9974"
         points="229.2674,335.2283 220.2381,341.7722 230.8719,345.0755 239.9012,338.5631 "
         id="polygon18" /><polygon
         fill="#ffffff"
         stroke="#000000"
         stroke-width="0.9974"
         points="312.6388,335.2283 321.6996,341.7722 311.0343,345.0755 302.005,338.5631 "
         id="polygon20" /><rect
         x="249.1192"
         y="197.1778"
         fill="none"
         stroke="#ffffff"
         stroke-width="1.9503"
         stroke-linejoin="bevel"
         width="42.522499"
         height="38.099201"
         id="rect22" /><ellipse
         fill="none"
         stroke="#ffffff"
         stroke-width="1.9503"
         cx="270.73291"
         cy="252.61189"
         rx="17.927099"
         ry="13.2409"
         id="ellipse24" /></g></g></g>
</svg>
